<svg width="146" height="146" viewBox="0 0 146 146" fill="none" xmlns="http://www.w3.org/2000/svg">
<path d="M73 146C113.317 146 146 113.317 146 73C146 32.6832 113.317 0 73 0C32.6832 0 0 32.6832 0 73C0 113.317 32.6832 146 73 146Z" fill="url(#paint0_linear_1277_9443)"/>
<path d="M75.8148 34.2255L81.2548 48.0213C84.2717 55.6705 90.3263 61.7252 97.9755 64.7421L111.771 70.182C114.325 71.1887 114.325 74.8024 111.771 75.8091L97.9755 81.249C90.3263 84.266 84.2717 90.3206 81.2548 97.9698L75.8148 111.766C74.8082 114.319 71.1944 114.319 70.1878 111.766L64.7478 97.9698C61.7309 90.3206 55.6763 84.266 48.0271 81.249L34.2312 75.8091C31.6775 74.8024 31.6775 71.1887 34.2312 70.182L48.0271 64.7421C55.6763 61.7252 61.7309 55.6705 64.7478 48.0213L70.1878 34.2255C71.1944 31.6718 74.8082 31.6718 75.8148 34.2255Z" fill="#EDF0F4"/>
<defs>
<linearGradient id="paint0_linear_1277_9443" x1="121.678" y1="40.289" x2="0.48401" y2="121.728" gradientUnits="userSpaceOnUse">
<stop stop-color="#4EB97F"/>
<stop offset="1" stop-color="#488CE1"/>
</linearGradient>
</defs>
</svg>
