<svg width="31" height="31" viewBox="0 0 31 31" fill="none" xmlns="http://www.w3.org/2000/svg">
<circle cx="15.5" cy="15.5" r="15.5" fill="#1E90FF"/>
<g clip-path="url(#clip0_1329_9343)">
<path d="M16.0971 16.108L21.2184 16.1079C21.5516 16.108 21.8209 15.8387 21.8208 15.5055C21.8208 15.1724 21.5515 14.9031 21.2184 14.9031L16.097 14.9031L16.0971 9.78177C16.097 9.44857 15.8278 9.17934 15.4947 9.17934C15.1615 9.17927 14.8922 9.44857 14.8923 9.78177L14.8922 14.9031L9.7709 14.9031C9.4377 14.9031 9.16839 15.1724 9.16847 15.5056C9.16839 15.6717 9.2358 15.8225 9.34486 15.9316C9.45393 16.0407 9.60473 16.108 9.7709 16.108L14.8922 16.1079V21.2293C14.8922 21.3954 14.9595 21.5462 15.0686 21.6553C15.1776 21.7644 15.3284 21.8317 15.4946 21.8317C15.8278 21.8318 16.0971 21.5625 16.097 21.2293L16.0971 16.108Z" fill="white"/>
</g>
<defs>
<clipPath id="clip0_1329_9343">
<rect width="9.3" height="9.3" fill="white" transform="translate(15.5 8.92407) rotate(45)"/>
</clipPath>
</defs>
</svg>
