<svg width="31" height="31" viewBox="0 0 31 31" fill="none" xmlns="http://www.w3.org/2000/svg">
<path d="M10 15.5C9.72386 15.5 9.5 15.7239 9.5 16C9.5 16.2761 9.72386 16.5 10 16.5L10 15.5ZM22.3536 16.3536C22.5488 16.1583 22.5488 15.8417 22.3536 15.6464L19.1716 12.4645C18.9763 12.2692 18.6597 12.2692 18.4645 12.4645C18.2692 12.6597 18.2692 12.9763 18.4645 13.1716L21.2929 16L18.4645 18.8284C18.2692 19.0237 18.2692 19.3403 18.4645 19.5355C18.6597 19.7308 18.9763 19.7308 19.1716 19.5355L22.3536 16.3536ZM10 16.5L22 16.5L22 15.5L10 15.5L10 16.5Z" fill="white"/>
<circle cx="15.5" cy="15.5" r="15" stroke="#488CE1"/>
</svg>
