<svg width="18" height="22" viewBox="0 0 18 22" fill="none" xmlns="http://www.w3.org/2000/svg">
<path id="Arrow 2" d="M7.82051 20C7.82051 20.6514 8.34859 21.1795 9 21.1795C9.65141 21.1795 10.1795 20.6514 10.1795 20L7.82051 20ZM9.83402 1.16598C9.37341 0.705359 8.6266 0.705358 8.16598 1.16598L0.659767 8.67219C0.199148 9.13281 0.199148 9.87962 0.659767 10.3402C1.12038 10.8009 1.86719 10.8009 2.32781 10.3402L9 3.66805L15.6722 10.3402C16.1328 10.8009 16.8796 10.8009 17.3402 10.3402C17.8009 9.87962 17.8009 9.13281 17.3402 8.67219L9.83402 1.16598ZM10.1795 20L10.1795 2L7.82051 2L7.82051 20L10.1795 20Z" fill="white"/>
</svg>
