<svg width="33" height="33" viewBox="0 0 33 33" fill="none" xmlns="http://www.w3.org/2000/svg">
<g clip-path="url(#clip0_1329_9337)">
<path d="M28.1673 4.83276C25.0508 1.71632 20.9073 0 16.5 0C12.0927 0 7.9492 1.71632 4.8327 4.83276C1.71632 7.9492 0 12.0927 0 16.5C0 20.9073 1.71632 25.0508 4.8327 28.1672C7.9492 31.2837 12.0927 33 16.5 33C20.9073 33 25.0508 31.2837 28.1673 28.1672C31.2837 25.0508 33 20.9073 33 16.5C33 12.0927 31.2837 7.9492 28.1673 4.83276ZM16.5 31.0664C12.1901 31.0664 8.31207 29.1842 5.64274 26.1995C7.29758 21.8124 11.5338 18.6914 16.5 18.6914C13.2963 18.6914 10.6992 16.0943 10.6992 12.8906C10.6992 9.68692 13.2963 7.08984 16.5 7.08984C19.7037 7.08984 22.3008 9.68692 22.3008 12.8906C22.3008 16.0943 19.7037 18.6914 16.5 18.6914C21.4662 18.6914 25.7024 21.8124 27.3573 26.1995C24.6879 29.1842 20.8099 31.0664 16.5 31.0664Z" fill="#4EB97F"/>
</g>
<defs>
<clipPath id="clip0_1329_9337">
<rect width="33" height="33" fill="white"/>
</clipPath>
</defs>
</svg>
