<svg width="22" height="18" viewBox="0 0 22 18" fill="none" xmlns="http://www.w3.org/2000/svg">
<path id="Vector" d="M20.265 0.282622C20.0931 0.158035 19.8964 0.0717526 19.6883 0.0295877C19.4801 -0.0125772 19.2654 -0.00964492 19.0585 0.0381866C18.8516 0.0860182 18.6573 0.177638 18.4888 0.306874C18.3203 0.43611 18.1814 0.59996 18.0816 0.787386L16.5634 3.76615C14.3155 3.20389 11.9422 3.43817 9.84763 4.42909C8.48643 3.78258 6.99622 3.45352 5.48934 3.46671C3.98246 3.47991 2.49825 3.83503 1.14858 4.50529C1.08895 4.5351 1.03881 4.58092 1.00377 4.63763C0.968733 4.69434 0.95018 4.75968 0.950195 4.82634V17.6399C0.950953 17.7008 0.967072 17.7606 0.997058 17.8136C1.02704 17.8666 1.06993 17.9111 1.12173 17.9432C1.17353 17.9752 1.23258 17.9936 1.2934 17.9967C1.35422 17.9998 1.41484 17.9875 1.46965 17.961C2.74694 17.3261 4.15393 16.9957 5.58031 16.9957C7.00669 16.9957 8.41368 17.3261 9.69098 17.961C9.74066 17.9862 9.7955 17.9995 9.8512 18C9.9069 18.0004 9.96195 17.988 10.012 17.9636C11.2896 17.3286 12.6968 16.9981 14.1235 16.9981C15.5502 16.9981 16.9574 17.3286 18.235 17.9636C18.2898 17.9902 18.3504 18.0025 18.4112 17.9994C18.472 17.9963 18.5311 17.9778 18.5829 17.9458C18.6347 17.9138 18.6776 17.8692 18.7076 17.8162C18.7376 17.7632 18.7537 17.7034 18.7544 17.6425V6.41447L20.8933 2.22123C21.0659 1.88063 21.0967 1.48558 20.979 1.12236C20.8613 0.759134 20.6046 0.457246 20.265 0.282622ZM18.7218 1.11208C18.8094 0.942189 18.9605 0.813762 19.1423 0.75475C19.3241 0.695739 19.5218 0.71092 19.6925 0.79699L19.9403 0.922812C20.1105 1.01116 20.2388 1.16322 20.2973 1.34582C20.3558 1.52843 20.3398 1.72676 20.2526 1.89755L19.9112 2.56685L18.3785 1.78567L18.7218 1.11208ZM18.0744 6.1677C18.061 6.20542 16.0858 10.0625 16.0693 10.099L15.6246 9.87365L19.1382 2.97865L19.585 3.20637L18.0744 6.1677ZM14.8323 11.2577L14.2939 11.6937C14.3138 11.299 14.3608 10.4483 14.3828 10.0483L14.9799 10.3518L15.5727 10.6521L14.8323 11.2577ZM18.0524 2.4253L18.4985 2.65266L14.9844 9.54876L14.5373 9.32151L18.0524 2.4253ZM1.66801 17.0779V5.0512C2.89282 4.4788 4.22832 4.18213 5.58029 4.18213C6.93226 4.18213 8.26777 4.4788 9.49258 5.0512V17.0779C8.25576 16.5503 6.92497 16.2783 5.5803 16.2783C4.23562 16.2782 2.90483 16.5503 1.66801 17.0779ZM10.2104 17.0805V5.04838C12.0902 4.17648 14.2076 3.95842 16.2256 4.4289L13.7347 9.31626C13.7156 9.36195 13.7027 9.41 13.6963 9.45911C13.6556 10.2078 13.572 11.7138 13.5312 12.4624C13.5283 12.5314 13.5452 12.5999 13.5799 12.6596C13.6147 12.7193 13.6659 12.7678 13.7274 12.7994C13.7889 12.8309 13.8582 12.8441 13.9269 12.8375C13.9957 12.8308 14.0612 12.8046 14.1155 12.7619L15.2869 11.8132L16.4498 10.8622C16.456 10.8533 16.4642 10.8459 16.4737 10.8408C16.5016 10.8116 16.5258 10.7791 16.5459 10.744L18.0366 7.82426V17.0805C16.7995 16.5527 15.4684 16.2806 14.1235 16.2806C12.7785 16.2806 11.4475 16.5527 10.2104 17.0805Z" fill="white"/>
</svg>
