<svg width="23" height="18" viewBox="0 0 23 18" fill="none" xmlns="http://www.w3.org/2000/svg">
<g id="Bubble Message">
<path id="Vector" d="M10.1238 7.87674C9.83799 7.87674 9.5586 7.79199 9.32095 7.6332C9.08331 7.47442 8.89809 7.24872 8.78871 6.98467C8.67934 6.72062 8.65072 6.43006 8.70648 6.14974C8.76224 5.86942 8.89987 5.61193 9.10197 5.40983C9.30406 5.20773 9.56155 5.0701 9.84187 5.01434C10.1222 4.95858 10.4128 4.9872 10.6768 5.09657C10.9409 5.20595 11.1666 5.39117 11.3253 5.62881C11.4841 5.86645 11.5689 6.14585 11.5689 6.43166C11.5684 6.81478 11.416 7.18208 11.1451 7.45299C10.8742 7.7239 10.5069 7.8763 10.1238 7.87674ZM10.1238 5.76132C9.99122 5.76132 9.86162 5.80063 9.75138 5.87429C9.64114 5.94795 9.55522 6.05264 9.50449 6.17513C9.45375 6.29762 9.44047 6.4324 9.46634 6.56243C9.4922 6.69246 9.55605 6.81191 9.64979 6.90566C9.74354 6.99941 9.86299 7.06325 9.99302 7.08911C10.1231 7.11498 10.2578 7.10171 10.3803 7.05097C10.5028 7.00023 10.6075 6.91431 10.6812 6.80408C10.7548 6.69384 10.7941 6.56424 10.7941 6.43166C10.7939 6.25394 10.7232 6.08356 10.5976 5.95789C10.4719 5.83222 10.3015 5.76153 10.1238 5.76132Z" fill="white"/>
<path id="Vector_2" d="M14.0535 7.87674C13.7677 7.87674 13.4883 7.79199 13.2506 7.6332C13.013 7.47441 12.8278 7.24872 12.7184 6.98467C12.609 6.72061 12.5804 6.43005 12.6362 6.14974C12.6919 5.86942 12.8296 5.61193 13.0317 5.40983C13.2338 5.20773 13.4912 5.0701 13.7716 5.01434C14.0519 4.95858 14.3424 4.9872 14.6065 5.09657C14.8705 5.20595 15.0962 5.39117 15.255 5.62881C15.4138 5.86645 15.4986 6.14585 15.4986 6.43166C15.4981 6.81478 15.3457 7.18208 15.0748 7.45299C14.8039 7.7239 14.4366 7.87629 14.0535 7.87674ZM14.0535 5.76132C13.9209 5.76132 13.7913 5.80063 13.6811 5.87429C13.5708 5.94795 13.4849 6.05264 13.4342 6.17513C13.3834 6.29762 13.3702 6.4324 13.396 6.56243C13.4219 6.69247 13.4857 6.81191 13.5795 6.90566C13.6732 6.99941 13.7927 7.06325 13.9227 7.08911C14.0527 7.11498 14.1875 7.10171 14.31 7.05097C14.4325 7.00023 14.5372 6.91431 14.6108 6.80408C14.6845 6.69384 14.7238 6.56424 14.7238 6.43166C14.7236 6.25394 14.6529 6.08356 14.5273 5.95789C14.4016 5.83222 14.2312 5.76153 14.0535 5.76132Z" fill="white"/>
<path id="Vector_3" d="M17.9822 7.87674C17.6964 7.87674 17.417 7.79199 17.1793 7.6332C16.9417 7.47441 16.7565 7.24872 16.6471 6.98467C16.5377 6.72061 16.5091 6.43005 16.5649 6.14974C16.6206 5.86942 16.7583 5.61193 16.9604 5.40983C17.1625 5.20773 17.42 5.0701 17.7003 5.01434C17.9806 4.95858 18.2711 4.9872 18.5352 5.09657C18.7993 5.20595 19.0249 5.39117 19.1837 5.62881C19.3425 5.86645 19.4273 6.14585 19.4273 6.43166C19.4268 6.81478 19.2744 7.18208 19.0035 7.45299C18.7326 7.7239 18.3653 7.87629 17.9822 7.87674ZM17.9822 5.76132C17.8496 5.76132 17.72 5.80063 17.6098 5.87429C17.4995 5.94795 17.4136 6.05264 17.3629 6.17513C17.3121 6.29762 17.2989 6.4324 17.3247 6.56243C17.3506 6.69247 17.4144 6.81191 17.5082 6.90566C17.6019 6.99941 17.7214 7.06325 17.8514 7.08911C17.9815 7.11498 18.1162 7.10171 18.2387 7.05097C18.3612 7.00023 18.4659 6.91431 18.5396 6.80408C18.6132 6.69384 18.6525 6.56424 18.6525 6.43166C18.6523 6.25394 18.5816 6.08356 18.456 5.95789C18.3303 5.83222 18.1599 5.76153 17.9822 5.76132Z" fill="white"/>
<path id="Vector_4" d="M20.3784 10.4135C20.9652 9.90659 21.4393 9.28227 21.77 8.58083C22.1007 7.8794 22.2806 7.11643 22.2982 6.34116C22.2982 2.84458 18.5996 0 14.0537 0C10.4479 0 7.38297 1.79243 6.26624 4.27756C2.93177 5.15939 0.702148 7.5469 0.702148 10.2696C0.719735 11.0449 0.899672 11.8079 1.23035 12.5093C1.56103 13.2108 2.0351 13.8351 2.62197 14.3421C2.69574 14.6517 2.38251 16.0508 1.50108 17.1095C1.43486 17.1888 1.39264 17.2853 1.37938 17.3877C1.36613 17.4902 1.38238 17.5943 1.42625 17.6878C1.47011 17.7813 1.53975 17.8604 1.62699 17.9157C1.71423 17.971 1.81545 18.0002 1.91874 18C1.94367 18 1.96857 17.9984 1.99327 17.9951C3.51606 17.8289 4.97059 17.2742 6.2173 16.3841C6.26951 16.3474 6.31376 16.3156 6.35046 16.2907C7.19921 16.5048 8.07134 16.6123 8.94669 16.6107C12.4629 16.6107 15.5412 14.9276 16.7078 12.4027C16.7323 12.42 16.7536 12.4348 16.7831 12.4555C18.0298 13.3456 19.4843 13.9003 21.0071 14.0665C21.0318 14.0698 21.0567 14.0715 21.0816 14.0714C21.1849 14.0716 21.286 14.0424 21.3732 13.9871C21.4605 13.9319 21.5301 13.8529 21.574 13.7594C21.6179 13.666 21.6342 13.5619 21.621 13.4595C21.6079 13.3571 21.5657 13.2606 21.4996 13.1813C20.6178 12.1223 20.3046 10.7231 20.3784 10.4135ZM8.94669 15.836C8.09416 15.8379 7.24506 15.7278 6.4212 15.5086C6.20141 15.4492 6.03988 15.5623 5.7728 15.7497C4.78207 16.4604 3.6422 16.9356 2.44003 17.1392C3.22159 15.9493 3.70505 14.2784 3.17695 13.8C2.66107 13.3643 2.24299 12.8246 1.95003 12.2163C1.65707 11.6079 1.49584 10.9445 1.4769 10.2696C1.4769 8.04218 3.25034 6.05879 5.95491 5.17537C5.85998 5.55676 5.81104 5.94814 5.80912 6.34116C5.80912 9.83754 9.50771 12.6821 14.0537 12.6821C14.6243 12.681 15.194 12.6341 15.7572 12.542C14.5639 14.51 11.8869 15.836 8.94669 15.836ZM17.2276 11.8211C17.0793 11.6841 16.8934 11.5947 16.6938 11.5643C16.6549 11.5645 16.6163 11.5698 16.5788 11.58C15.7551 11.7993 14.9061 11.9093 14.0537 11.9074C9.93481 11.9074 6.58388 9.41046 6.58388 6.34117C6.58388 3.27188 9.9348 0.774747 14.0537 0.774747C18.1725 0.774747 21.5235 3.27187 21.5235 6.34116C21.5045 7.01614 21.3432 7.6795 21.0502 8.28785C20.7572 8.8962 20.339 9.43582 19.823 9.8714C19.2953 10.3498 19.7784 12.0203 20.5607 13.2106C19.3584 13.0071 18.2184 12.5319 17.2276 11.8211Z" fill="white"/>
</g>
</svg>
