<svg width="15" height="18" viewBox="0 0 15 18" fill="none" xmlns="http://www.w3.org/2000/svg">
<g id="chat 2" clip-path="url(#clip0_1400_11438)">
<g id="Group">
<g id="Group_2">
<path id="Vector" d="M8.90625 3.375H3.28125C3.0225 3.375 2.8125 3.627 2.8125 3.9375C2.8125 4.248 3.0225 4.5 3.28125 4.5H8.90625C9.165 4.5 9.375 4.248 9.375 3.9375C9.375 3.627 9.165 3.375 8.90625 3.375Z" fill="white"/>
</g>
</g>
<g id="Group_3">
<g id="Group_4">
<path id="Vector_2" d="M7.03125 5.625H3.28125C3.0225 5.625 2.8125 5.877 2.8125 6.1875C2.8125 6.498 3.0225 6.75 3.28125 6.75H7.03125C7.29 6.75 7.5 6.498 7.5 6.1875C7.5 5.877 7.29 5.625 7.03125 5.625Z" fill="white"/>
</g>
</g>
<g id="Group_5">
<g id="Group_6">
<path id="Vector_3" d="M10.3125 0H1.875C0.840937 0 0 1.00912 0 2.25V13.5C0 13.7183 0.105 13.9174 0.27 14.0096C0.332812 14.0445 0.40125 14.0625 0.46875 14.0625C0.576563 14.0625 0.683437 14.0175 0.76875 13.932L3.45094 11.25H10.3125C11.3466 11.25 12.1875 10.2409 12.1875 9V2.25C12.1875 1.00912 11.3466 0 10.3125 0ZM11.25 9C11.25 9.61987 10.83 10.125 10.3125 10.125H3.28125C3.17156 10.125 3.06562 10.1711 2.98125 10.2555L0.9375 12.2996V2.25C0.9375 1.63013 1.3575 1.125 1.875 1.125H10.3125C10.83 1.125 11.25 1.63013 11.25 2.25V9Z" fill="white"/>
</g>
</g>
<g id="Group_7">
<g id="Group_8">
<path id="Vector_4" d="M13.125 4.5C12.8663 4.5 12.6562 4.752 12.6562 5.0625C12.6562 5.373 12.8663 5.625 13.125 5.625C13.6425 5.625 14.0625 6.13013 14.0625 6.75V16.2664L12.48 14.7476C12.3975 14.6689 12.2934 14.625 12.1875 14.625H5.625C5.1075 14.625 4.6875 14.1199 4.6875 13.5V12.9375C4.6875 12.627 4.4775 12.375 4.21875 12.375C3.96 12.375 3.75 12.627 3.75 12.9375V13.5C3.75 14.7409 4.59094 15.75 5.625 15.75H12.0225L14.2378 17.8774C14.3231 17.9584 14.4272 18 14.5312 18C14.5997 18 14.6691 17.982 14.7347 17.9449C14.8969 17.8504 15 17.6535 15 17.4375V6.75C15 5.50912 14.1591 4.5 13.125 4.5Z" fill="white"/>
</g>
</g>
</g>
<defs>
<clipPath id="clip0_1400_11438">
<rect width="15" height="18" fill="white"/>
</clipPath>
</defs>
</svg>
