<svg width="14" height="13" viewBox="0 0 14 13" fill="none" xmlns="http://www.w3.org/2000/svg">
<path d="M3.18072 12.619H8.48654C9.5065 12.619 10.3428 11.8667 10.4736 10.8984H10.8199C11.9302 10.8984 12.8337 10.0102 12.8337 8.91856V3.12832C12.8337 2.03672 11.9302 1.14844 10.8199 1.14844H5.51405C4.40379 1.14844 3.50033 2.03672 3.50033 3.12832V3.44256H3.18072C2.07046 3.44256 1.16699 4.33084 1.16699 5.42244V10.6391C1.16699 11.7307 2.07046 12.619 3.18072 12.619ZM4.66699 3.12832C4.66699 2.66909 5.04698 2.2955 5.51405 2.2955H10.8199C11.287 2.2955 11.667 2.66909 11.667 3.12832V8.9185C11.667 9.37778 11.287 9.75138 10.8199 9.75138H10.5003V5.42244C10.5003 4.33084 9.59686 3.44256 8.4866 3.44256H4.66699V3.12832ZM2.33366 5.42244C2.33366 4.96321 2.71364 4.58961 3.18072 4.58961H8.48654C8.95368 4.58961 9.33366 4.96321 9.33366 5.42244V10.6391C9.33366 11.0984 8.95368 11.472 8.4866 11.472H3.18072C2.71364 11.472 2.33366 11.0984 2.33366 10.6391V5.42244Z" fill="white"/>
</svg>
