<svg width="36" height="36" viewBox="0 0 36 36" fill="none" xmlns="http://www.w3.org/2000/svg">
<path d="M33.6786 13.8073L33.6786 13.8073C34.698 17.6137 34.2996 21.6614 32.5573 25.1955C32.5573 25.1955 32.5573 25.1956 32.5573 25.1956L32.2434 25.0408L33.6786 13.8073ZM33.6786 13.8073C33.5771 13.4287 33.8018 13.0397 34.1799 12.9383C34.5581 12.8369 34.9469 13.0614 35.0484 13.44C36.157 17.5791 35.7237 21.9803 33.8291 25.8234C29.9615 33.6696 20.6008 37.5485 12.3204 34.7365C4.04 31.9245 -1.02616 23.1461 0.679857 14.5655C2.38587 5.98521 10.4242 -0.185392 19.15 0.386759C23.1021 0.645926 26.8429 2.22618 29.7785 4.85862L30.3229 5.34683M33.6786 13.8073L30.3229 5.34683M30.3229 5.34683L30.3616 4.6166L30.5426 1.20759M30.3229 5.34683L30.5426 1.20759M30.5426 1.20759C30.5426 1.20759 30.5426 1.20758 30.5426 1.20757C30.5634 0.816111 30.8975 0.515884 31.2883 0.536663L31.3069 0.187157M30.5426 1.20759L31.3069 0.187157M31.3069 0.187157L31.2883 0.536664C31.6792 0.557433 31.9797 0.891441 31.9589 1.28285L31.9589 1.28287M31.3069 0.187157L31.9589 1.28287M31.9589 1.28287L31.6411 7.2682C31.6312 7.45612 31.5469 7.6324 31.407 7.75825L31.407 7.75826M31.9589 1.28287L31.407 7.75826M31.407 7.75826C31.2672 7.88404 31.0831 7.94909 30.8954 7.93911L30.8954 7.93911M31.407 7.75826L30.8954 7.93911M30.8954 7.93911L24.9126 7.62123M30.8954 7.93911L24.9126 7.62123M24.9126 7.62123C24.5218 7.60045 24.2214 7.26651 24.2421 6.87491L24.9126 7.62123Z" fill="white" fill-opacity="0.26" stroke="#2C3279" stroke-width="0.7"/>
</svg>
