<svg width="31" height="31" viewBox="0 0 31 31" fill="none" xmlns="http://www.w3.org/2000/svg">
<ellipse cx="15.6309" cy="15.5" rx="15.336" ry="15.5" fill="#191B46"/>
<g clip-path="url(#clip0_1525_15078)">
<path d="M21.6816 9.75781C21.9243 9.75781 22.1211 9.56106 22.1211 9.31836C22.1211 9.07566 21.9243 8.87891 21.6816 8.87891C21.4389 8.87891 21.2422 9.07566 21.2422 9.31836C21.2422 9.56106 21.4389 9.75781 21.6816 9.75781Z" fill="white"/>
<path d="M22.5605 13.3027C22.8033 13.3027 23 13.106 23 12.8633C23 12.6206 22.8033 12.4238 22.5605 12.4238C22.3178 12.4238 22.1211 12.6206 22.1211 12.8633C22.1211 13.106 22.3178 13.3027 22.5605 13.3027Z" fill="white"/>
<path d="M15.5293 23C18.7325 23 21.5748 20.9296 22.6022 17.8921C22.6648 17.7071 22.5975 17.5029 22.4374 17.3908C22.2777 17.2797 22.0627 17.2866 21.91 17.4093C20.9628 18.1728 19.82 18.5762 18.6055 18.5762C15.6975 18.5762 13.3027 16.2107 13.3027 13.3027C13.3027 11.4844 14.2551 9.78743 15.8018 8.81281C15.9675 8.70852 16.025 8.5064 15.9705 8.31843C15.9164 8.13046 15.725 8 15.5293 8C11.4099 8 8 11.3806 8 15.5C8 19.6194 11.4099 23 15.5293 23Z" fill="white"/>
<path d="M16.4082 11.5449C17.1352 11.5449 17.7266 12.1363 17.7266 12.8633C17.7266 13.1062 17.9231 13.3027 18.166 13.3027C18.4089 13.3027 18.6055 13.1062 18.6055 12.8633C18.6055 12.1363 19.1969 11.5449 19.9238 11.5449C20.1667 11.5449 20.3633 11.3484 20.3633 11.1055C20.3633 10.8626 20.1667 10.666 19.9238 10.666C19.1969 10.666 18.6055 10.0453 18.6055 9.31836C18.6055 9.07546 18.4089 8.87891 18.166 8.87891C17.9231 8.87891 17.7266 9.07546 17.7266 9.31836C17.7266 10.0453 17.1352 10.666 16.4082 10.666C16.1653 10.666 15.9688 10.8626 15.9688 11.1055C15.9688 11.3484 16.1653 11.5449 16.4082 11.5449Z" fill="white"/>
</g>
<defs>
<clipPath id="clip0_1525_15078">
<rect width="15" height="15" fill="white" transform="translate(8 8)"/>
</clipPath>
</defs>
</svg>
