<svg width="31" height="31" viewBox="0 0 31 31" fill="none" xmlns="http://www.w3.org/2000/svg">
<circle cx="15.5" cy="15.5" r="15.5" fill="#1E90FF"/>
<g clip-path="url(#clip0_3162_20729)">
<path d="M21.6225 14.0893C21.6222 14.089 21.6219 14.0887 21.6216 14.0884L15.9107 8.37769C15.6673 8.13416 15.3436 8 14.9994 8C14.6551 8 14.3315 8.13405 14.088 8.37758L8.38005 14.0854C8.37813 14.0873 8.3762 14.0893 8.37428 14.0912C7.8744 14.594 7.87526 15.4097 8.37674 15.9112C8.60585 16.1404 8.90845 16.2732 9.23198 16.2871C9.24512 16.2884 9.25836 16.289 9.27171 16.289H9.49933V20.4917C9.49933 21.3233 10.176 22 11.0078 22H13.2421C13.4686 22 13.6523 21.8164 13.6523 21.5898V18.2949C13.6523 17.9154 13.961 17.6067 14.3405 17.6067H15.6583C16.0378 17.6067 16.3465 17.9154 16.3465 18.2949V21.5898C16.3465 21.8164 16.5301 22 16.7566 22H18.9909C19.8228 22 20.4994 21.3233 20.4994 20.4917V16.289H20.7105C21.0546 16.289 21.3783 16.155 21.6219 15.9114C22.1239 15.4091 22.1241 14.592 21.6225 14.0893Z" fill="white"/>
</g>
<defs>
<clipPath id="clip0_3162_20729">
<rect width="14" height="14" fill="white" transform="translate(8 8)"/>
</clipPath>
</defs>
</svg>
