<svg width="21" height="22" viewBox="0 0 21 22" fill="none" xmlns="http://www.w3.org/2000/svg">
<g id="Layer_x0020_1">
<g id="_484777568">
<g id="Group">
<path id="Vector" fill-rule="evenodd" clip-rule="evenodd" d="M4.91348 15.5968C4.69861 15.5968 4.48375 15.5108 4.26889 15.4249C3.96808 15.253 3.75321 14.9522 3.66727 14.6514L0.745121 3.65037C0.659176 3.30659 0.702148 2.96281 0.874039 2.662C1.04593 2.40416 1.30377 2.1893 1.64755 2.06038L9.25372 0.0406599C9.94129 -0.131231 10.6288 0.255524 10.8437 0.943087L13.7659 11.9441C13.9377 12.6317 13.551 13.2763 12.8634 13.5341L5.25726 15.5538C5.12834 15.5538 5.04239 15.5968 4.91348 15.5968ZM1.81944 2.61902C1.64755 2.70497 1.47566 2.83389 1.38971 2.96281C1.30377 3.09172 1.26079 3.26362 1.30377 3.47848H1.34674L4.26889 14.4795C4.35483 14.8233 4.74159 15.0381 5.08537 14.9522L12.6915 12.9325C13.0783 12.8036 13.2932 12.4598 13.1642 12.116L10.2421 1.11498C10.1561 0.728224 9.76939 0.51336 9.42561 0.599306L1.81944 2.61902Z" fill="white"/>
</g>
<g id="Group_2">
<path id="Vector_2" fill-rule="evenodd" clip-rule="evenodd" d="M12.8639 18.0038C12.7779 18.0038 12.649 17.9608 12.5631 17.9608C12.5201 17.9608 12.5201 17.9608 12.5201 17.9608L4.95689 15.8981C4.65609 15.8122 4.35528 15.6403 4.18339 15.3395C4.09744 15.1676 4.14041 14.9957 4.26933 14.9097C4.44122 14.8238 4.61311 14.8668 4.69906 14.9957C4.785 15.1676 4.91392 15.2965 5.08581 15.2965H5.12879L12.692 17.3592C13.0787 17.4451 13.4225 17.2732 13.5085 16.8865L16.4736 5.88547C16.6025 5.54169 16.3447 5.15494 16.0009 5.06899L11.102 3.73684C10.9731 3.69386 10.8442 3.52197 10.8871 3.35008C10.9301 3.17819 11.102 3.09225 11.2739 3.13522L16.1728 4.46737C16.8174 4.63926 17.2471 5.3698 17.0752 6.05736L14.1101 17.0584C13.9812 17.617 13.4655 18.0038 12.8639 18.0038Z" fill="white"/>
</g>
<g id="Group_3">
<path id="Vector_3" fill-rule="evenodd" clip-rule="evenodd" d="M10.9733 22.0001C10.6725 22.0001 10.3287 21.8712 10.0709 21.6133L4.48441 16.0698C4.48441 16.0698 4.48441 16.0698 4.48441 16.0269C4.22657 15.769 4.14062 15.5112 4.14062 15.1674C4.14062 14.9955 4.26954 14.8666 4.44143 14.8666C4.61333 14.8666 4.74224 14.9955 4.74224 15.1674C4.74224 15.3393 4.78522 15.5112 4.91413 15.6401L10.5006 21.1836C10.7584 21.4414 11.1882 21.4414 11.446 21.1836L19.4819 13.1477C19.7827 12.8899 19.7827 12.4601 19.4819 12.2023L15.9152 8.59258C15.8292 8.46366 15.8292 8.29177 15.9152 8.16285C16.0441 8.03393 16.2589 8.03393 16.3449 8.16285L19.9116 11.7726C20.4273 12.2882 20.4273 13.0617 19.9116 13.5774L11.8757 21.6133C11.6179 21.8712 11.3171 22.0001 10.9733 22.0001Z" fill="white"/>
</g>
</g>
</g>
</svg>
