<svg width="13" height="12" viewBox="0 0 13 12" fill="none" xmlns="http://www.w3.org/2000/svg">
<g clip-path="url(#clip0_1329_9386)">
<path d="M4.99414 1.85767H12.1488" stroke="white" stroke-width="0.5" stroke-miterlimit="10" stroke-linecap="round" stroke-linejoin="round"/>
<path d="M4.99414 5.99976H12.1488" stroke="white" stroke-width="0.5" stroke-miterlimit="10" stroke-linecap="round" stroke-linejoin="round"/>
<path d="M4.99414 10.1423H12.1488" stroke="white" stroke-width="0.5" stroke-miterlimit="10" stroke-linecap="round" stroke-linejoin="round"/>
<path d="M1.98125 2.9874C2.60516 2.9874 3.11094 2.48162 3.11094 1.85771C3.11094 1.23381 2.60516 0.728027 1.98125 0.728027C1.35734 0.728027 0.851562 1.23381 0.851562 1.85771C0.851562 2.48162 1.35734 2.9874 1.98125 2.9874Z" stroke="white" stroke-width="0.5" stroke-miterlimit="10" stroke-linecap="round" stroke-linejoin="round"/>
<path d="M1.98125 7.12949C2.60516 7.12949 3.11094 6.62371 3.11094 5.9998C3.11094 5.3759 2.60516 4.87012 1.98125 4.87012C1.35734 4.87012 0.851562 5.3759 0.851562 5.9998C0.851562 6.62371 1.35734 7.12949 1.98125 7.12949Z" stroke="white" stroke-width="0.5" stroke-miterlimit="10" stroke-linecap="round" stroke-linejoin="round"/>
<path d="M1.98125 11.2718C2.60516 11.2718 3.11094 10.766 3.11094 10.1421C3.11094 9.51823 2.60516 9.01245 1.98125 9.01245C1.35734 9.01245 0.851562 9.51823 0.851562 10.1421C0.851562 10.766 1.35734 11.2718 1.98125 11.2718Z" stroke="white" stroke-width="0.5" stroke-miterlimit="10" stroke-linecap="round" stroke-linejoin="round"/>
</g>
<defs>
<clipPath id="clip0_1329_9386">
<rect width="12" height="12" fill="white" transform="translate(0.5)"/>
</clipPath>
</defs>
</svg>
