<svg width="36" height="36" viewBox="0 0 36 36" fill="none" xmlns="http://www.w3.org/2000/svg">
<g id="Icon">
<g id="Group">
<path id="Vector" d="M30.728 5.2721C27.3281 1.87235 22.808 0 18 0C13.192 0 8.67185 1.87235 5.27203 5.2721C1.87235 8.67185 0 13.192 0 18C0 22.808 1.87235 27.3281 5.27203 30.7279C8.67185 34.1277 13.192 36 18 36C22.808 36 27.3281 34.1277 30.728 30.7279C34.1276 27.3281 36 22.808 36 18C36 13.192 34.1276 8.67185 30.728 5.2721ZM18 33.8906C13.2983 33.8906 9.06771 31.8374 6.15572 28.5813C7.96099 23.7953 12.5823 20.3906 18 20.3906C14.505 20.3906 11.6719 17.5575 11.6719 14.0625C11.6719 10.5675 14.505 7.73438 18 7.73438C21.495 7.73438 24.3281 10.5675 24.3281 14.0625C24.3281 17.5575 21.495 20.3906 18 20.3906C23.4177 20.3906 28.039 23.7953 29.8443 28.5813C26.9323 31.8374 22.7017 33.8906 18 33.8906Z" fill="#B8EFD1"/>
</g>
</g>
</svg>
