<svg width="90" height="90" viewBox="0 0 90 90" fill="none" xmlns="http://www.w3.org/2000/svg">
<path d="M45 90C69.8528 90 90 69.8528 90 45C90 20.1472 69.8528 0 45 0C20.1472 0 0 20.1472 0 45C0 69.8528 20.1472 90 45 90Z" fill="url(#paint0_linear_1329_9403)"/>
<path d="M46.7353 21.0979L50.0887 29.6022C51.9484 34.3175 55.6807 38.0498 60.396 39.9095L68.9003 43.2629C70.4745 43.8834 70.4745 46.1111 68.9003 46.7316L60.396 50.085C55.6807 51.9448 51.9484 55.6771 50.0887 60.3923L46.7353 68.8967C46.1148 70.4708 43.8871 70.4708 43.2666 68.8967L39.9132 60.3923C38.0534 55.6771 34.3211 51.9448 29.6059 50.085L21.1015 46.7316C19.5273 46.1111 19.5273 43.8834 21.1015 43.2629L29.6059 39.9095C34.3211 38.0498 38.0534 34.3175 39.9132 29.6022L43.2666 21.0979C43.8871 19.5237 46.1148 19.5237 46.7353 21.0979Z" fill="#EDF0F4"/>
<defs>
<linearGradient id="paint0_linear_1329_9403" x1="75.0067" y1="24.8357" x2="0.298363" y2="75.0378" gradientUnits="userSpaceOnUse">
<stop stop-color="#4EB97F"/>
<stop offset="1" stop-color="#488CE1"/>
</linearGradient>
</defs>
</svg>
