<?xml version="1.0" encoding="UTF-8"?>
<svg xmlns="http://www.w3.org/2000/svg" xmlns:xlink="http://www.w3.org/1999/xlink" viewBox="0 0 500 500">
  <defs>
    <style>
      .cls-1 {
        fill: #edf0f4;
      }

      .cls-2 {
        fill: url(#_Безымянный_градиент_2);
      }
    </style>
    <linearGradient id="_Безымянный_градиент_2" data-name="Безымянный градиент 2" x1="413.93" y1="362.16" x2="5.79" y2="87.9" gradientTransform="translate(0 502) scale(1 -1)" gradientUnits="userSpaceOnUse">
      <stop offset="0" stop-color="#4eb97f"/>
      <stop offset="1" stop-color="#488ce1"/>
    </linearGradient>
  </defs>
  <g id="_Слой_3" data-name="Слой 3">
    <circle class="cls-2" cx="250" cy="250" r="245.84"/>
  </g>
  <g id="_Слой_2" data-name="Слой 2">
    <path class="cls-1" d="M259.48,119.42l18.32,46.46c10.16,25.76,30.55,46.15,56.31,56.31l46.46,18.32c8.6,3.39,8.6,15.56,0,18.95l-46.46,18.32c-25.76,10.16-46.15,30.55-56.31,56.31l-18.32,46.46c-3.39,8.6-15.56,8.6-18.95,0l-18.32-46.46c-10.16-25.76-30.55-46.15-56.31-56.31l-46.46-18.32c-8.6-3.39-8.6-15.56,0-18.95l46.46-18.32c25.76-10.16,46.15-30.55,56.31-56.31l18.32-46.46c3.39-8.6,15.56-8.6,18.95,0Z"/>
  </g>
</svg>