<svg width="36" height="36" viewBox="0 0 36 36" fill="none" xmlns="http://www.w3.org/2000/svg">
<circle cx="18" cy="18" r="18" fill="#488CE1"/>
<path d="M18.4731 8.3264L19.8114 11.7203C20.5535 13.6021 22.043 15.0916 23.9248 15.8338L27.3187 17.172C27.9469 17.4197 27.9469 18.3087 27.3187 18.5563L23.9248 19.8946C22.043 20.6368 20.5535 22.1263 19.8114 24.0081L18.4731 27.402C18.2254 28.0302 17.3364 28.0302 17.0888 27.402L15.7505 24.0081C15.0083 22.1263 13.5188 20.6368 11.6371 19.8946L8.24315 18.5563C7.61492 18.3087 7.61492 17.4197 8.24315 17.172L11.6371 15.8338C13.5188 15.0916 15.0083 13.6021 15.7505 11.7203L17.0888 8.3264C17.3364 7.69817 18.2254 7.69817 18.4731 8.3264Z" fill="white"/>
</svg>
