<svg width="20" height="26" viewBox="0 0 20 26" fill="none" xmlns="http://www.w3.org/2000/svg">
<g id="Shape">
<mask id="path-1-outside-1_1383_595" maskUnits="userSpaceOnUse" x="-0.260742" y="-0.389648" width="20" height="27" fill="black">
<rect fill="white" x="-0.260742" y="-0.389648" width="20" height="27"/>
<path fill-rule="evenodd" clip-rule="evenodd" d="M10.0001 0.610352C12.7648 0.610352 15.0059 2.85153 15.0059 5.61616V12.6243C15.0059 15.3889 12.7648 17.6301 10.0001 17.6301C7.23551 17.6301 4.99433 15.3889 4.99433 12.6243V5.61616C4.99433 2.85153 7.23551 0.610352 10.0001 0.610352ZM18.5099 11.8737C18.9246 11.8737 19.2607 12.2099 19.2607 12.6246C19.2607 17.2329 15.5066 20.9946 10.7518 21.3563L10.7509 24.6385C10.7509 25.0532 10.4147 25.3894 10 25.3894C9.61986 25.3894 9.3057 25.1069 9.25598 24.7404L9.24913 24.6385L9.24921 21.3564C4.49395 20.9952 0.739258 17.2332 0.739258 12.6246C0.739258 12.2099 1.07543 11.8737 1.49013 11.8737C1.90482 11.8737 2.241 12.2099 2.241 12.6246C2.241 16.6228 5.70499 19.883 10 19.883C14.295 19.883 17.759 16.6228 17.759 12.6246C17.759 12.2099 18.0952 11.8737 18.5099 11.8737ZM6.49618 5.61613C6.49618 3.68089 8.065 2.11206 10.0002 2.11206C11.9355 2.11206 13.5043 3.68089 13.5043 5.61613V12.6243C13.5043 14.5595 11.9355 16.1283 10.0002 16.1283C8.065 16.1283 6.49618 14.5595 6.49618 12.6243V5.61613Z"/>
</mask>
<path fill-rule="evenodd" clip-rule="evenodd" d="M10.0001 0.610352C12.7648 0.610352 15.0059 2.85153 15.0059 5.61616V12.6243C15.0059 15.3889 12.7648 17.6301 10.0001 17.6301C7.23551 17.6301 4.99433 15.3889 4.99433 12.6243V5.61616C4.99433 2.85153 7.23551 0.610352 10.0001 0.610352ZM18.5099 11.8737C18.9246 11.8737 19.2607 12.2099 19.2607 12.6246C19.2607 17.2329 15.5066 20.9946 10.7518 21.3563L10.7509 24.6385C10.7509 25.0532 10.4147 25.3894 10 25.3894C9.61986 25.3894 9.3057 25.1069 9.25598 24.7404L9.24913 24.6385L9.24921 21.3564C4.49395 20.9952 0.739258 17.2332 0.739258 12.6246C0.739258 12.2099 1.07543 11.8737 1.49013 11.8737C1.90482 11.8737 2.241 12.2099 2.241 12.6246C2.241 16.6228 5.70499 19.883 10 19.883C14.295 19.883 17.759 16.6228 17.759 12.6246C17.759 12.2099 18.0952 11.8737 18.5099 11.8737ZM6.49618 5.61613C6.49618 3.68089 8.065 2.11206 10.0002 2.11206C11.9355 2.11206 13.5043 3.68089 13.5043 5.61613V12.6243C13.5043 14.5595 11.9355 16.1283 10.0002 16.1283C8.065 16.1283 6.49618 14.5595 6.49618 12.6243V5.61613Z" fill="white"/>
<path d="M10.7518 21.3563L10.7339 21.1211L10.516 21.1376L10.5159 21.3562L10.7518 21.3563ZM10.7509 24.6385L10.515 24.6385V24.6385H10.7509ZM9.25598 24.7404L9.02062 24.7563L9.02115 24.7642L9.02223 24.7721L9.25598 24.7404ZM9.24913 24.6385L9.01323 24.6385L9.01323 24.6465L9.01376 24.6544L9.24913 24.6385ZM9.24921 21.3564L9.4851 21.3564L9.48511 21.1377L9.26707 21.1211L9.24921 21.3564ZM15.2418 5.61616C15.2418 2.72124 12.8951 0.374454 10.0001 0.374454V0.846249C12.6345 0.846249 14.77 2.98181 14.77 5.61616H15.2418ZM15.2418 12.6243V5.61616H14.77V12.6243H15.2418ZM10.0001 17.866C12.8951 17.866 15.2418 15.5192 15.2418 12.6243H14.77C14.77 15.2586 12.6345 17.3942 10.0001 17.3942V17.866ZM4.75844 12.6243C4.75844 15.5192 7.10523 17.866 10.0001 17.866V17.3942C7.36579 17.3942 5.23023 15.2586 5.23023 12.6243H4.75844ZM4.75844 5.61616V12.6243H5.23023V5.61616H4.75844ZM10.0001 0.374454C7.10523 0.374454 4.75844 2.72124 4.75844 5.61616H5.23023C5.23023 2.98181 7.36579 0.846249 10.0001 0.846249V0.374454ZM19.4966 12.6246C19.4966 12.0796 19.0548 11.6378 18.5099 11.6378V12.1096C18.7943 12.1096 19.0248 12.3402 19.0248 12.6246H19.4966ZM10.7697 21.5915C15.635 21.2215 19.4966 17.3683 19.4966 12.6246H19.0248C19.0248 17.0974 15.3781 20.7678 10.7339 21.1211L10.7697 21.5915ZM10.9868 24.6386L10.9877 21.3564L10.5159 21.3562L10.515 24.6385L10.9868 24.6386ZM10 25.6253C10.545 25.6253 10.9868 25.1835 10.9868 24.6385H10.515C10.515 24.9229 10.2844 25.1535 10 25.1535V25.6253ZM9.02223 24.7721C9.0876 25.254 9.50025 25.6253 10 25.6253V25.1535C9.73948 25.1535 9.52381 24.9598 9.48974 24.7087L9.02223 24.7721ZM9.01376 24.6544L9.02062 24.7563L9.49135 24.7246L9.4845 24.6227L9.01376 24.6544ZM9.01331 21.3564L9.01323 24.6385L9.48503 24.6385L9.4851 21.3564L9.01331 21.3564ZM0.50336 12.6246C0.50336 17.3686 4.36553 21.222 9.23134 21.5916L9.26707 21.1211C4.62238 20.7683 0.975155 17.0977 0.975155 12.6246H0.50336ZM1.49013 11.6378C0.945152 11.6378 0.50336 12.0796 0.50336 12.6246H0.975155C0.975155 12.3402 1.20572 12.1096 1.49013 12.1096V11.6378ZM2.4769 12.6246C2.4769 12.0796 2.03511 11.6378 1.49013 11.6378V12.1096C1.77454 12.1096 2.0051 12.3402 2.0051 12.6246H2.4769ZM10 19.6471C5.82063 19.6471 2.4769 16.4783 2.4769 12.6246H2.0051C2.0051 16.7672 5.58934 20.1189 10 20.1189V19.6471ZM17.5231 12.6246C17.5231 16.4783 14.1794 19.6471 10 19.6471V20.1189C14.4107 20.1189 17.9949 16.7672 17.9949 12.6246H17.5231ZM18.5099 11.6378C17.9649 11.6378 17.5231 12.0796 17.5231 12.6246H17.9949C17.9949 12.3402 18.2255 12.1096 18.5099 12.1096V11.6378ZM10.0002 1.87617C7.93472 1.87617 6.26028 3.55061 6.26028 5.61613H6.73208C6.73208 3.81117 8.19528 2.34796 10.0002 2.34796V1.87617ZM13.7402 5.61613C13.7402 3.55061 12.0658 1.87617 10.0002 1.87617V2.34796C11.8052 2.34796 13.2684 3.81117 13.2684 5.61613H13.7402ZM13.7402 12.6243V5.61613H13.2684V12.6243H13.7402ZM10.0002 16.3642C12.0658 16.3642 13.7402 14.6898 13.7402 12.6243H13.2684C13.2684 14.4292 11.8052 15.8924 10.0002 15.8924V16.3642ZM6.26028 12.6243C6.26028 14.6898 7.93472 16.3642 10.0002 16.3642V15.8924C8.19528 15.8924 6.73208 14.4292 6.73208 12.6243H6.26028ZM6.26028 5.61613V12.6243H6.73208V5.61613H6.26028Z" fill="white" mask="url(#path-1-outside-1_1383_595)"/>
</g>
</svg>
