<svg width="31" height="31" viewBox="0 0 31 31" fill="none" xmlns="http://www.w3.org/2000/svg">
<ellipse cx="15.6309" cy="15.5" rx="15.336" ry="15.5" fill="#FBC538"/>
<path d="M14.9238 10.9163C15.0618 11.2985 15.4151 11.5063 15.7886 11.4358C16.1486 11.3653 16.4144 11.0239 16.4245 10.6195C16.4346 10.3227 16.4279 10.0259 16.4279 9.72911C16.4279 9.44714 16.4312 9.16517 16.4279 8.88691C16.4245 8.553 16.2966 8.28959 16.0308 8.11892C15.4992 7.7813 14.87 8.20054 14.8633 8.89804C14.8565 9.45085 14.8599 10.0074 14.8633 10.5602C14.8599 10.6826 14.8834 10.8013 14.9238 10.9163Z" fill="white"/>
<path d="M11.5157 13.4027C11.9127 13.2172 12.0978 12.7089 11.9262 12.2711C11.8858 12.1709 11.832 12.0782 11.7613 12.0003C11.3912 11.5884 11.0244 11.1803 10.6476 10.7759C10.3414 10.442 9.85014 10.4457 9.54731 10.7796C9.54395 10.7833 9.54395 10.7833 9.54058 10.7871C9.24112 11.121 9.24112 11.6478 9.54395 11.9966C9.64825 12.1153 9.75593 12.234 9.8636 12.349C10.126 12.6384 10.3818 12.9315 10.6476 13.2135C10.8999 13.4732 11.1927 13.5474 11.5157 13.4027Z" fill="white"/>
<path d="M21.7607 11.9596C21.9895 11.6962 22.0265 11.366 21.8886 11.0321C21.6631 10.483 21.0272 10.3569 20.6268 10.7872C20.2567 11.1842 19.8933 11.5923 19.5265 11.993C19.3718 12.1637 19.291 12.3677 19.291 12.6608C19.3045 12.9688 19.4492 13.2433 19.7486 13.3954C20.0481 13.5476 20.3509 13.5067 20.5898 13.2545C20.9868 12.8315 21.3771 12.4011 21.7607 11.9596Z" fill="white"/>
<path d="M23.5276 16.6381C22.9724 16.6232 22.4139 16.6232 21.8587 16.6381C21.4314 16.6492 21.1117 17.0573 21.1286 17.5359C21.142 17.9849 21.4886 18.3484 21.9058 18.3522H22.6932C22.6932 18.3522 23.2181 18.3522 23.4805 18.3522C23.9011 18.3484 24.2443 17.9886 24.2578 17.5396C24.2679 17.0573 23.9549 16.6492 23.5276 16.6381Z" fill="white"/>
<path d="M9.41219 16.6333C8.8671 16.6222 8.32201 16.6222 7.77356 16.6333C7.34288 16.6445 7.0165 17.0415 7.0266 17.5164C7.04005 17.9838 7.38662 18.3548 7.81058 18.3511H8.58446C8.58446 18.3511 9.10936 18.3511 9.37181 18.3511C9.79577 18.3511 10.1423 17.9875 10.1558 17.5312C10.1659 17.0415 9.8496 16.6445 9.41219 16.6333Z" fill="white"/>
<path d="M10.956 17.8473C10.9695 18.0476 11.1175 18.1998 11.2992 18.1998H19.9937C20.1788 18.1998 20.3302 18.0365 20.3369 17.8325C20.3504 17.3835 20.3268 16.9049 20.2561 16.5191C19.7514 13.6883 17.3221 11.874 14.7514 12.4046C12.4365 12.8832 10.7811 15.2539 10.956 17.8473Z" fill="white"/>
<path d="M19.5603 19.6719H11.7205C11.2898 19.6719 10.9365 20.0577 10.9365 20.5363C10.9365 21.0112 11.2865 21.4008 11.7205 21.4008H19.5603C19.991 21.4008 20.3443 21.0149 20.3443 20.5363C20.3409 20.0577 19.991 19.6719 19.5603 19.6719Z" fill="white"/>
</svg>
