<svg width="31" height="31" viewBox="0 0 31 31" fill="none" xmlns="http://www.w3.org/2000/svg">
<path d="M0.5 15.5C0.5 7.22692 7.22692 0.5 15.5 0.5C23.7731 0.5 30.5 7.22692 30.5 15.5C30.5 23.7731 23.7731 30.5 15.5 30.5C7.22692 30.5 0.5 23.7731 0.5 15.5Z" stroke="#B8B8B8"/>
<path fill-rule="evenodd" clip-rule="evenodd" d="M22.9957 10.2749C23.3711 10.6502 23.3711 11.2678 22.9957 11.6432L13.9137 20.7252C13.726 20.9129 13.4777 21.0098 13.2295 21.0098C12.9812 21.0098 12.733 20.9129 12.5453 20.7252L8.00429 16.1842C7.6289 15.8088 7.6289 15.1913 8.00429 14.8159C8.37968 14.4405 8.99726 14.4405 9.37265 14.8159L13.2295 18.6727L21.6273 10.2749C22.0027 9.89341 22.6203 9.89341 22.9957 10.2749Z" fill="white"/>
</svg>
