<svg width="31" height="31" viewBox="0 0 31 31" fill="none" xmlns="http://www.w3.org/2000/svg">
<g clip-path="url(#clip0_1329_9351)">
<path d="M0.5 15.5C0.5 7.22692 7.22692 0.5 15.5 0.5C23.7731 0.5 30.5 7.22692 30.5 15.5C30.5 23.7731 23.7731 30.5 15.5 30.5C7.22692 30.5 0.5 23.7731 0.5 15.5Z" stroke="#4EB97F"/>
<path fill-rule="evenodd" clip-rule="evenodd" d="M22.9956 10.2749C23.371 10.6502 23.371 11.2678 22.9956 11.6432L13.9136 20.7252C13.7259 20.9129 13.4776 21.0098 13.2294 21.0098C12.9812 21.0098 12.7329 20.9129 12.5452 20.7252L8.0042 16.1842C7.62881 15.8088 7.62881 15.1913 8.0042 14.8159C8.37959 14.4405 8.99717 14.4405 9.37256 14.8159L13.2294 18.6727L21.6272 10.2749C22.0026 9.89341 22.6202 9.89341 22.9956 10.2749Z" fill="white"/>
</g>
<defs>
<clipPath id="clip0_1329_9351">
<rect width="31" height="31" fill="white"/>
</clipPath>
</defs>
</svg>
