<svg width="15" height="14" viewBox="0 0 15 14" fill="none" xmlns="http://www.w3.org/2000/svg">
<g clip-path="url(#clip0_1329_9396)">
<path d="M8.15333 14H6.84667C6.40508 14 6.03233 13.6692 5.97983 13.23L5.84042 12.1357C5.56217 12.0452 5.29383 11.9338 5.03892 11.8038L4.16742 12.481C3.81392 12.7546 3.31633 12.7231 3.0095 12.4075L2.09075 11.4887C1.7775 11.1848 1.746 10.6872 2.01958 10.3343L2.69683 9.46225C2.56617 9.20733 2.45475 8.939 2.36492 8.66075L1.26825 8.52133C0.83075 8.46767 0.5 8.09492 0.5 7.65333V6.34667C0.5 5.90508 0.83075 5.53233 1.27 5.47983L2.36433 5.34042C2.45475 5.06217 2.56617 4.79383 2.69625 4.53892L2.01958 3.66742C1.74542 3.31392 1.7775 2.81575 2.09367 2.50892L3.01242 1.59017C3.31633 1.27692 3.8145 1.246 4.16683 1.519L5.03833 2.19683C5.29325 2.06675 5.56158 1.95533 5.84042 1.86492L5.97983 0.76825C6.03233 0.33075 6.40508 0 6.84667 0H8.15333C8.59492 0 8.96767 0.33075 9.02017 0.77L9.15958 1.86433C9.43842 1.95475 9.70675 2.06617 9.96167 2.19625L10.8332 1.519C11.1873 1.24542 11.6842 1.27692 11.9911 1.59308L12.9098 2.51183C13.2231 2.81575 13.2546 3.31333 12.981 3.66625L12.3038 4.53833C12.4344 4.79325 12.5458 5.06158 12.6357 5.33983L13.7323 5.47925C14.1692 5.53233 14.5 5.90508 14.5 6.34667V7.65333C14.5 8.09492 14.1692 8.46767 13.73 8.52017L12.6357 8.65958C12.5452 8.93783 12.4338 9.20617 12.3038 9.46108L12.981 10.3326C13.2552 10.6861 13.2231 11.1837 12.9069 11.4905L11.9882 12.4093C11.6842 12.7225 11.1861 12.7546 10.8337 12.4804L9.96167 11.8032C9.70675 11.9338 9.43842 12.0452 9.16017 12.1351L9.02075 13.2317C8.96767 13.6692 8.59492 14 8.15333 14ZM5.00917 11.165C5.05758 11.165 5.10717 11.1772 5.1515 11.2017C5.47292 11.3814 5.82117 11.5261 6.18633 11.6311C6.29833 11.6632 6.38058 11.7588 6.39517 11.8743L6.5585 13.1577C6.576 13.3041 6.70258 13.4167 6.84667 13.4167H8.15333C8.29742 13.4167 8.424 13.3041 8.44092 13.1606L8.60483 11.8749C8.61942 11.7594 8.70167 11.6637 8.81367 11.6317C9.17883 11.5267 9.52708 11.382 9.8485 11.2023C9.95058 11.1452 10.0778 11.1551 10.1693 11.2268L11.1902 12.0202C11.3074 12.1112 11.4719 12.1036 11.5723 12.0003L12.4968 11.0757C12.6024 10.9731 12.6106 10.8086 12.5196 10.6907L11.7262 9.66992C11.6545 9.57775 11.6446 9.45117 11.7017 9.34908C11.8814 9.02767 12.0261 8.67942 12.1311 8.31425C12.1632 8.20225 12.2588 8.12 12.3743 8.10542L13.6577 7.94208C13.8041 7.924 13.9167 7.79742 13.9167 7.65333V6.34667C13.9167 6.20258 13.8041 6.076 13.6606 6.05908L12.3749 5.89517C12.2594 5.88058 12.1637 5.79833 12.1317 5.68633C12.0267 5.32117 11.882 4.97292 11.7023 4.6515C11.6452 4.54942 11.6545 4.42283 11.7268 4.33067L12.5202 3.30983C12.6117 3.192 12.6036 3.0275 12.5009 2.92833L11.5763 2.00375C11.4742 1.89758 11.3092 1.88942 11.1913 1.981L10.1705 2.77433C10.0777 2.84608 9.95117 2.856 9.84908 2.79883C9.52883 2.61917 9.18058 2.47508 8.81425 2.3695C8.70225 2.33742 8.62 2.24175 8.60542 2.12625L8.44208 0.842917C8.424 0.695917 8.29742 0.583333 8.15333 0.583333H6.84667C6.70258 0.583333 6.576 0.695917 6.55908 0.839417L6.39517 2.12508C6.38058 2.24058 6.29833 2.33625 6.18633 2.36892C5.82 2.47392 5.47175 2.61858 5.1515 2.79767C5.04942 2.85542 4.92283 2.84492 4.83008 2.77375L3.80925 1.98042C3.69142 1.88883 3.5275 1.897 3.42775 1.99967L2.50317 2.92483C2.39758 3.0275 2.38942 3.192 2.48042 3.30983L3.27375 4.33067C3.3455 4.42283 3.35542 4.54942 3.29825 4.6515C3.118 4.97292 2.97392 5.32117 2.86892 5.68633C2.83683 5.79833 2.74117 5.88058 2.62567 5.89517L1.34233 6.0585C1.19592 6.076 1.08333 6.20258 1.08333 6.34667V7.65333C1.08333 7.79742 1.19592 7.924 1.33942 7.94092L2.62508 8.10483C2.74058 8.11942 2.83625 8.20167 2.86833 8.31367C2.97333 8.67883 3.118 9.02708 3.29767 9.3485C3.35483 9.45058 3.3455 9.57717 3.27317 9.66933L2.47983 10.6902C2.38825 10.808 2.39642 10.9725 2.49908 11.0717L3.42367 11.9963C3.52575 12.1018 3.68967 12.11 3.80867 12.019L4.8295 11.2257C4.88258 11.186 4.94558 11.165 5.00917 11.165Z" fill="white"/>
<path d="M7.50016 9.91659C5.89191 9.91659 4.5835 8.60817 4.5835 6.99992C4.5835 5.39167 5.89191 4.08325 7.50016 4.08325C9.10841 4.08325 10.4168 5.39167 10.4168 6.99992C10.4168 8.60817 9.10841 9.91659 7.50016 9.91659ZM7.50016 4.66659C6.21333 4.66659 5.16683 5.71309 5.16683 6.99992C5.16683 8.28675 6.21333 9.33325 7.50016 9.33325C8.787 9.33325 9.8335 8.28675 9.8335 6.99992C9.8335 5.71309 8.787 4.66659 7.50016 4.66659Z" fill="white"/>
</g>
<defs>
<clipPath id="clip0_1329_9396">
<rect width="14" height="14" fill="white" transform="translate(0.5)"/>
</clipPath>
</defs>
</svg>
