<svg width="12" height="13" viewBox="0 0 12 13" fill="none" xmlns="http://www.w3.org/2000/svg">
<g clip-path="url(#clip0_2196_3930)">
<path d="M6.56 12.5H5.44C5.0615 12.5 4.742 12.2165 4.697 11.84L4.5775 10.902C4.339 10.8245 4.109 10.729 3.8905 10.6175L3.1435 11.198C2.8405 11.4325 2.414 11.4055 2.151 11.135L1.3635 10.3475C1.095 10.087 1.068 9.6605 1.3025 9.358L1.883 8.6105C1.771 8.392 1.6755 8.162 1.5985 7.9235L0.6585 7.804C0.2835 7.758 0 7.4385 0 7.06V5.94C0 5.5615 0.2835 5.242 0.66 5.197L1.598 5.0775C1.6755 4.839 1.771 4.609 1.8825 4.3905L1.3025 3.6435C1.0675 3.3405 1.095 2.9135 1.366 2.6505L2.1535 1.863C2.414 1.5945 2.841 1.568 3.143 1.802L3.89 2.383C4.1085 2.2715 4.3385 2.176 4.5775 2.0985L4.697 1.1585C4.742 0.7835 5.0615 0.5 5.44 0.5H6.56C6.9385 0.5 7.258 0.7835 7.303 1.16L7.4225 2.098C7.6615 2.1755 7.8915 2.271 8.11 2.3825L8.857 1.802C9.1605 1.5675 9.5865 1.5945 9.8495 1.8655L10.637 2.653C10.9055 2.9135 10.9325 3.34 10.698 3.6425L10.1175 4.39C10.2295 4.6085 10.325 4.8385 10.402 5.077L11.342 5.1965C11.7165 5.242 12 5.5615 12 5.94V7.06C12 7.4385 11.7165 7.758 11.34 7.803L10.402 7.9225C10.3245 8.161 10.229 8.391 10.1175 8.6095L10.698 9.3565C10.933 9.6595 10.9055 10.086 10.6345 10.349L9.847 11.1365C9.5865 11.405 9.1595 11.4325 8.8575 11.1975L8.11 10.617C7.8915 10.729 7.6615 10.8245 7.423 10.9015L7.3035 11.8415C7.258 12.2165 6.9385 12.5 6.56 12.5ZM3.865 10.07C3.9065 10.07 3.949 10.0805 3.987 10.1015C4.2625 10.2555 4.561 10.3795 4.874 10.4695C4.97 10.497 5.0405 10.579 5.053 10.678L5.193 11.778C5.208 11.9035 5.3165 12 5.44 12H6.56C6.6835 12 6.792 11.9035 6.8065 11.7805L6.947 10.6785C6.9595 10.5795 7.03 10.4975 7.126 10.47C7.439 10.38 7.7375 10.256 8.013 10.102C8.1005 10.053 8.2095 10.0615 8.288 10.123L9.163 10.803C9.2635 10.881 9.4045 10.8745 9.4905 10.786L10.283 9.9935C10.3735 9.9055 10.3805 9.7645 10.3025 9.6635L9.6225 8.7885C9.561 8.7095 9.5525 8.601 9.6015 8.5135C9.7555 8.238 9.8795 7.9395 9.9695 7.6265C9.997 7.5305 10.079 7.46 10.178 7.4475L11.278 7.3075C11.4035 7.292 11.5 7.1835 11.5 7.06V5.94C11.5 5.8165 11.4035 5.708 11.2805 5.6935L10.1785 5.553C10.0795 5.5405 9.9975 5.47 9.97 5.374C9.88 5.061 9.756 4.7625 9.602 4.487C9.553 4.3995 9.561 4.291 9.623 4.212L10.303 3.337C10.3815 3.236 10.3745 3.095 10.2865 3.01L9.494 2.2175C9.4065 2.1265 9.265 2.1195 9.164 2.198L8.289 2.878C8.2095 2.9395 8.101 2.948 8.0135 2.899C7.739 2.745 7.4405 2.6215 7.1265 2.531C7.0305 2.5035 6.96 2.4215 6.9475 2.3225L6.8075 1.2225C6.792 1.0965 6.6835 1 6.56 1H5.44C5.3165 1 5.208 1.0965 5.1935 1.2195L5.053 2.3215C5.0405 2.4205 4.97 2.5025 4.874 2.5305C4.56 2.6205 4.2615 2.7445 3.987 2.898C3.8995 2.9475 3.791 2.9385 3.7115 2.8775L2.8365 2.1975C2.7355 2.119 2.595 2.126 2.5095 2.214L1.717 3.007C1.6265 3.095 1.6195 3.236 1.6975 3.337L2.3775 4.212C2.439 4.291 2.4475 4.3995 2.3985 4.487C2.244 4.7625 2.1205 5.061 2.0305 5.374C2.003 5.47 1.921 5.5405 1.822 5.553L0.722 5.693C0.5965 5.708 0.5 5.8165 0.5 5.94V7.06C0.5 7.1835 0.5965 7.292 0.7195 7.3065L1.8215 7.447C1.9205 7.4595 2.0025 7.53 2.03 7.626C2.12 7.939 2.244 8.2375 2.398 8.513C2.447 8.6005 2.439 8.709 2.377 8.788L1.697 9.663C1.6185 9.764 1.6255 9.905 1.7135 9.99L2.506 10.7825C2.5935 10.873 2.734 10.88 2.836 10.802L3.711 10.122C3.7565 10.088 3.8105 10.07 3.865 10.07Z" fill="white"/>
<path d="M6 9C4.6215 9 3.5 7.8785 3.5 6.5C3.5 5.1215 4.6215 4 6 4C7.3785 4 8.5 5.1215 8.5 6.5C8.5 7.8785 7.3785 9 6 9ZM6 4.5C4.897 4.5 4 5.397 4 6.5C4 7.603 4.897 8.5 6 8.5C7.103 8.5 8 7.603 8 6.5C8 5.397 7.103 4.5 6 4.5Z" fill="white"/>
</g>
<defs>
<clipPath id="clip0_2196_3930">
<rect width="12" height="12" fill="white" transform="translate(0 0.5)"/>
</clipPath>
</defs>
</svg>
