<svg width="90" height="90" viewBox="0 0 90 90" fill="none" xmlns="http://www.w3.org/2000/svg">
<circle cx="45" cy="45" r="45" fill="#383B7C"/>
<path d="M45 14.75C39.0171 14.75 33.1686 16.5241 28.194 19.848C23.2194 23.172 19.3422 27.8964 17.0527 33.4238C14.7631 38.9513 14.1641 45.0336 15.3313 50.9015C16.4985 56.7694 19.3795 62.1594 23.61 66.39C27.8406 70.6205 33.2306 73.5016 39.0985 74.6688C44.9665 75.836 51.0487 75.2369 56.5762 72.9474C62.1037 70.6578 66.8281 66.7806 70.152 61.806C73.4759 56.8314 75.25 50.9829 75.25 45C75.2406 36.9801 72.0505 29.2914 66.3795 23.6205C60.7086 17.9495 53.0199 14.7595 45 14.75ZM55.1943 55.1943C54.6786 55.7098 53.9792 55.9994 53.25 55.9994C52.5208 55.9994 51.8215 55.7098 51.3058 55.1943L43.0558 46.9443C42.54 46.4286 42.2502 45.7293 42.25 45V28.5C42.25 27.7707 42.5397 27.0712 43.0555 26.5555C43.5712 26.0397 44.2707 25.75 45 25.75C45.7294 25.75 46.4288 26.0397 46.9446 26.5555C47.4603 27.0712 47.75 27.7707 47.75 28.5V43.8615L55.1943 51.3058C55.7098 51.8215 55.9994 52.5208 55.9994 53.25C55.9994 53.9792 55.7098 54.6786 55.1943 55.1943Z" fill="white"/>
</svg>
