<svg width="30" height="30" viewBox="0 0 30 30" fill="none" xmlns="http://www.w3.org/2000/svg">
<path d="M29.4894 5.36422C29.3584 4.12168 28.8048 2.96177 27.9212 2.07845C27.0376 1.19512 25.8775 0.641934 24.6349 0.511382C18.2328 -0.175018 11.7756 -0.175018 5.37352 0.511382C4.1297 0.640465 2.96801 1.193 2.083 2.07646C1.19799 2.95992 0.643417 4.12064 0.512152 5.36422C-0.171368 11.7693 -0.171368 18.229 0.512152 24.6341C0.644603 25.8763 1.19863 27.0355 2.08194 27.9189C2.96526 28.8022 4.12454 29.3562 5.3667 29.4887C11.7688 30.1751 18.226 30.1751 24.6281 29.4887C25.8714 29.3577 27.0323 28.8043 27.917 27.9208C28.8017 27.0374 29.3567 25.8773 29.4894 24.6341C30.1729 18.229 30.1729 11.7693 29.4894 5.36422ZM23.4775 20.3642C23.0411 20.4256 20.907 20.3642 20.7962 20.3642C20.2432 20.3705 19.7102 20.1579 19.3133 19.7727C18.8633 19.3381 18.461 18.8608 18.0212 18.4091C17.8917 18.2705 17.7508 18.1428 17.6002 18.0273C17.2491 17.758 16.9014 17.8193 16.736 18.2335C16.6068 18.6811 16.5167 19.1391 16.4667 19.6023C16.4377 20.0199 16.1718 20.2841 15.7014 20.3114C15.4099 20.3284 15.1184 20.3335 14.8303 20.3267C13.7804 20.3195 12.747 20.0636 11.815 19.5801C10.8064 19.0187 9.92765 18.2509 9.23602 17.3267C8.09908 15.8745 7.19056 14.279 6.3792 12.6341C6.33658 12.5506 5.50477 10.783 5.48431 10.6977C5.40931 10.4199 5.48431 10.1523 5.71443 10.0585C5.86102 10.0023 8.60192 10.0585 8.64795 10.0585C8.8518 10.0574 9.05075 10.121 9.21616 10.2402C9.38157 10.3593 9.5049 10.5279 9.5684 10.7216C10.0751 12.019 10.7688 13.2353 11.6275 14.3318C11.7477 14.4779 11.8884 14.606 12.0451 14.712C12.2684 14.8654 12.4798 14.8125 12.5718 14.5534C12.681 14.1963 12.7452 13.827 12.7627 13.454C12.7781 12.7142 12.7627 12.2284 12.7218 11.4887C12.6945 11.0148 12.5275 10.6006 11.8286 10.4659C11.6139 10.4267 11.5951 10.2495 11.7332 10.0722C12.0212 9.7057 12.415 9.64604 12.8565 9.62559C13.5144 9.58638 14.1724 9.61195 14.8303 9.62559H14.9735C15.2599 9.62314 15.5456 9.65171 15.8258 9.71081C15.9914 9.74517 16.1415 9.83178 16.2541 9.95791C16.3668 10.084 16.4359 10.243 16.4514 10.4114C16.4852 10.598 16.4995 10.7877 16.494 10.9773C16.4769 11.7835 16.4377 12.5915 16.4292 13.3977C16.4213 13.7177 16.4504 14.0374 16.5161 14.3506C16.6099 14.7818 16.9048 14.8875 17.1979 14.5773C17.5779 14.1777 17.9261 13.7492 18.2394 13.2955C18.7944 12.4667 19.252 11.5768 19.6031 10.6432C19.794 10.1642 19.944 10.0585 20.4553 10.0585H23.3633C23.5362 10.0555 23.7086 10.0785 23.8747 10.1267C23.9334 10.1422 23.9884 10.1696 24.0361 10.2073C24.0838 10.2449 24.1232 10.292 24.1518 10.3456C24.1805 10.3993 24.1977 10.4582 24.2025 10.5188C24.2074 10.5794 24.1996 10.6403 24.1798 10.6977C24.0366 11.337 23.6923 11.879 23.3275 12.4023C22.736 13.2392 22.1122 14.0557 21.507 14.8824C21.4301 14.9916 21.3601 15.1054 21.2974 15.2233C21.069 15.6341 21.086 15.8642 21.4167 16.2051C21.9451 16.7489 22.5093 17.2568 23.019 17.8159C23.3928 18.2227 23.7304 18.6613 24.0281 19.1267C24.4014 19.7063 24.1712 20.2585 23.4758 20.3574L23.4775 20.3642Z" fill="#0077FF"/>
</svg>
