<svg width="14" height="14" viewBox="0 0 14 14" fill="none" xmlns="http://www.w3.org/2000/svg">
<g id="bot 1" clip-path="url(#clip0_3038_14137)">
<circle id="Ellipse 14" cx="7.13194" cy="7.39538" r="3.69811" fill="#2D327E"/>
<path id="Vector" d="M10.1729 2.80358H9.82311V2.03926C10.305 1.86897 10.5942 1.37604 10.5077 0.872211C10.4212 0.368258 9.98443 0 9.47317 0C8.96191 0 8.5251 0.368258 8.43861 0.872211C8.35212 1.37604 8.64132 1.86897 9.12324 2.03926V2.80358H4.92453V2.03926C5.40657 1.86897 5.69564 1.37604 5.60928 0.872211C5.52278 0.368258 5.08597 0 4.57472 0C4.06346 0 3.62652 0.368258 3.54016 0.872211C3.45367 1.37604 3.74274 1.86897 4.22478 2.03926V2.80358H3.87485C2.9091 2.80461 2.12645 3.58725 2.12543 4.553V10.5011C2.12645 11.467 2.9091 12.2497 3.87485 12.2507H4.92453V13.6502C4.92465 13.7774 4.99372 13.8945 5.10494 13.9562C5.21616 14.0178 5.35211 14.0142 5.45987 13.9468L8.17402 12.2507H10.1729C11.1388 12.2498 11.9216 11.467 11.9225 10.5011V4.553C11.9216 3.58725 11.1388 2.80448 10.1729 2.80358ZM5.27446 4.90294C5.85388 4.90358 6.3235 5.37319 6.32414 5.95262C6.32414 6.14584 6.16756 6.30242 5.9742 6.30242C5.78098 6.30242 5.6244 6.14584 5.6244 5.95262C5.6244 5.75939 5.46769 5.60268 5.27446 5.60268C5.08123 5.60268 4.92453 5.75939 4.92453 5.95262C4.92453 6.14584 4.76794 6.30242 4.57472 6.30242C4.38149 6.30242 4.22478 6.14584 4.22478 5.95262C4.22542 5.37319 4.69504 4.90358 5.27446 4.90294ZM9.62962 9.23965C8.81533 9.62367 7.92415 9.81728 7.02388 9.80549C6.12361 9.81728 5.23256 9.6238 4.41814 9.23965C4.24528 9.15329 4.17532 8.94302 4.26169 8.77017C4.34818 8.59731 4.55832 8.52722 4.73117 8.61371C6.03814 9.26694 8.01 9.26694 9.31672 8.61371C9.48957 8.52722 9.69971 8.59731 9.7862 8.77017C9.87257 8.94302 9.80248 9.15329 9.62962 9.23965ZM9.47317 6.30242C9.3804 6.30255 9.29135 6.26565 9.22574 6.20004C9.16014 6.13444 9.12324 6.04539 9.12324 5.95262C9.12324 5.75939 8.96666 5.60268 8.77343 5.60268C8.5802 5.60268 8.42349 5.75939 8.42349 5.95262C8.42349 6.14584 8.26691 6.30242 8.07356 6.30242C7.88033 6.30242 7.72375 6.14584 7.72375 5.95262C7.72375 5.37281 8.19362 4.90294 8.77343 4.90294C9.35311 4.90294 9.82311 5.37281 9.82311 5.95262C9.82311 6.04539 9.78633 6.13444 9.7206 6.20004C9.65499 6.26565 9.56594 6.30255 9.47317 6.30242Z" fill="white"/>
<path id="Vector_2" d="M12.9724 5.60352H12.6224V9.10248H12.9724C13.5518 9.10184 14.0214 8.63223 14.022 8.05281V6.65319C14.0214 6.07377 13.5518 5.60416 12.9724 5.60352Z" fill="white"/>
<path id="Vector_3" d="M0.0262451 6.65319V8.05281C0.0268858 8.63223 0.496499 9.10184 1.07592 9.10248H1.42586V5.60352H1.07592C0.496499 5.60416 0.0268858 6.07377 0.0262451 6.65319Z" fill="white"/>
</g>
<defs>
<clipPath id="clip0_3038_14137">
<rect width="14" height="14" fill="white"/>
</clipPath>
</defs>
</svg>
