<svg width="14" height="14" viewBox="0 0 14 14" fill="none" xmlns="http://www.w3.org/2000/svg">
<g id="clock-3 1" clip-path="url(#clip0_3038_14144)">
<g id="Layer 2">
<path id="Vector" d="M7 0.583984C5.7309 0.583984 4.4903 0.960315 3.43509 1.66539C2.37987 2.37046 1.55743 3.37261 1.07177 4.5451C0.586109 5.71759 0.459037 7.00777 0.706626 8.25248C0.954214 9.49719 1.56534 10.6405 2.46273 11.5379C3.36012 12.4353 4.50346 13.0464 5.74817 13.294C6.99288 13.5416 8.28306 13.4145 9.45555 12.9289C10.628 12.4432 11.6302 11.6208 12.3353 10.5656C13.0403 9.51035 13.4167 8.26975 13.4167 7.00065C13.4147 5.29946 12.738 3.66852 11.535 2.4656C10.3321 1.26268 8.70119 0.585991 7 0.583984ZM9.16241 9.16307C9.05302 9.27243 8.90468 9.33386 8.75 9.33386C8.59532 9.33386 8.44697 9.27243 8.33758 9.16307L6.58758 7.41307C6.47818 7.3037 6.4167 7.15535 6.41666 7.00065V3.50065C6.41666 3.34594 6.47812 3.19757 6.58752 3.08817C6.69691 2.97878 6.84529 2.91732 7 2.91732C7.15471 2.91732 7.30308 2.97878 7.41248 3.08817C7.52187 3.19757 7.58333 3.34594 7.58333 3.50065V6.75915L9.16241 8.33823C9.27177 8.44763 9.33321 8.59597 9.33321 8.75065C9.33321 8.90533 9.27177 9.05368 9.16241 9.16307Z" fill="white"/>
</g>
</g>
<defs>
<clipPath id="clip0_3038_14144">
<rect width="14" height="14" fill="white"/>
</clipPath>
</defs>
</svg>
