<svg width="14" height="14" viewBox="0 0 14 14" fill="none" xmlns="http://www.w3.org/2000/svg">
<g id="incognito 1">
<g id="Group">
<path id="Vector" d="M12.1294 9.89853C12.1294 8.69591 11.1483 7.71484 9.94571 7.71484C9.11835 7.71484 8.40854 8.18053 8.03783 8.86318H5.5241C5.15339 8.18053 4.44359 7.71484 3.61622 7.71484C2.41363 7.71484 1.43254 8.6959 1.43254 9.89853C1.43254 11.1056 2.41363 12.0867 3.61622 12.0867C4.81882 12.0867 5.7999 11.1056 5.7999 9.89853C5.7999 9.8533 5.79085 9.81263 5.78633 9.7674H7.7756C7.77108 9.81263 7.76203 9.8533 7.76203 9.89853C7.76203 11.1056 8.74312 12.0867 9.94571 12.0867C11.1483 12.0867 12.1294 11.1056 12.1294 9.89853Z" fill="white"/>
<path id="Vector_2" d="M13.2325 6.60734C12.5227 6.40841 11.8039 6.24113 11.085 6.10551L10.3888 2.59716C10.3616 2.46606 10.2803 2.35303 10.1672 2.28973C10.0497 2.22643 9.90952 2.21741 9.78747 2.2626C7.84792 2.99502 5.71399 2.99502 3.77444 2.2626C3.65239 2.21288 3.51224 2.22643 3.39921 2.28973C3.28166 2.35303 3.20028 2.46606 3.17316 2.59716L2.4769 6.10551C1.75806 6.24113 1.0392 6.40841 0.324867 6.60734C0.0852646 6.67969 -0.0503627 6.92834 0.0174397 7.16795C0.0852646 7.40758 0.333918 7.5432 0.573548 7.4799C4.63345 6.31801 8.92846 6.31801 12.9884 7.4799C13.0291 7.48895 13.0697 7.498 13.1104 7.498C13.3094 7.498 13.4902 7.36687 13.5445 7.16795C13.6123 6.92834 13.4766 6.67969 13.2325 6.60734Z" fill="white"/>
</g>
</g>
</svg>
